<?xml version="1.0" encoding="UTF-8" standalone="no"?>
<!DOCTYPE svg PUBLIC "-//W3C//DTD SVG 1.1//EN" "http://www.w3.org/Graphics/SVG/1.1/DTD/svg11.dtd">
<svg width="100%" height="100%" viewBox="0 0 108 37" version="1.1" xmlns="http://www.w3.org/2000/svg" xmlns:xlink="http://www.w3.org/1999/xlink" xml:space="preserve" xmlns:serif="http://www.serif.com/" style="fill-rule:evenodd;clip-rule:evenodd;stroke-linejoin:round;stroke-miterlimit:2;">
    <g transform="matrix(0.24,0,0,0.24,-270.055,-395.993)">
        <g transform="matrix(1.04528,0,0,0.922111,-97.1628,131.562)">
            <path d="M1599.42,1646.67L1169.43,1646.96L1222.93,1728.02L1169.43,1809.44L1599.16,1809.14L1544.63,1728.26L1599.42,1646.67Z" style="fill:rgb(204,74,51);"/>
        </g>
        <g transform="matrix(0.906788,0,0,0.906788,284.35,377.922)">
            <g transform="matrix(16.6667,0,0,16.6667,1121.87,1432.41)">
                <path d="M0.694,-0.706C0.685,-0.696 0.675,-0.691 0.664,-0.691C0.653,-0.691 0.642,-0.691 0.631,-0.693C0.621,-0.695 0.61,-0.696 0.6,-0.696C0.59,-0.695 0.581,-0.69 0.574,-0.68C0.564,-0.682 0.553,-0.683 0.542,-0.681C0.531,-0.68 0.52,-0.677 0.508,-0.674C0.496,-0.671 0.484,-0.669 0.473,-0.666C0.461,-0.663 0.449,-0.662 0.438,-0.663L0.421,-0.68C0.416,-0.673 0.41,-0.668 0.402,-0.667C0.394,-0.665 0.386,-0.667 0.378,-0.672C0.364,-0.663 0.351,-0.659 0.337,-0.659C0.323,-0.66 0.31,-0.66 0.297,-0.661C0.284,-0.661 0.272,-0.658 0.26,-0.653C0.249,-0.647 0.239,-0.634 0.231,-0.612C0.226,-0.597 0.22,-0.582 0.215,-0.567C0.21,-0.552 0.204,-0.536 0.199,-0.521C0.185,-0.482 0.17,-0.444 0.156,-0.406C0.141,-0.368 0.125,-0.33 0.106,-0.293C0.105,-0.264 0.106,-0.234 0.108,-0.204C0.111,-0.174 0.114,-0.145 0.117,-0.115C0.115,-0.107 0.114,-0.099 0.115,-0.091C0.116,-0.082 0.118,-0.074 0.121,-0.065C0.124,-0.057 0.128,-0.049 0.133,-0.042C0.137,-0.034 0.142,-0.027 0.147,-0.021L0.165,-0.038L0.189,-0.004C0.196,-0.012 0.204,-0.021 0.212,-0.031C0.221,-0.04 0.23,-0.049 0.24,-0.057C0.25,-0.065 0.26,-0.072 0.271,-0.078C0.282,-0.083 0.293,-0.087 0.304,-0.089C0.308,-0.093 0.313,-0.098 0.316,-0.104C0.32,-0.109 0.325,-0.113 0.329,-0.117C0.334,-0.12 0.339,-0.123 0.344,-0.125C0.35,-0.126 0.356,-0.126 0.364,-0.123C0.385,-0.135 0.404,-0.15 0.42,-0.167C0.436,-0.185 0.452,-0.203 0.469,-0.221C0.485,-0.239 0.502,-0.256 0.52,-0.271C0.538,-0.285 0.559,-0.296 0.583,-0.302C0.567,-0.264 0.548,-0.227 0.523,-0.192C0.499,-0.156 0.472,-0.125 0.442,-0.097C0.435,-0.088 0.425,-0.079 0.413,-0.072L0.38,-0.052C0.362,-0.04 0.345,-0.028 0.329,-0.014C0.313,-0.001 0.297,0.014 0.282,0.03C0.28,0.026 0.278,0.024 0.274,0.022C0.271,0.021 0.267,0.021 0.263,0.021C0.259,0.021 0.255,0.021 0.25,0.021C0.246,0.022 0.243,0.022 0.239,0.021C0.227,0.031 0.211,0.038 0.191,0.043C0.171,0.049 0.153,0.05 0.138,0.047C0.133,0.046 0.127,0.043 0.119,0.04C0.111,0.036 0.105,0.033 0.102,0.03C0.076,0.013 0.057,-0.008 0.044,-0.033C0.032,-0.058 0.025,-0.085 0.023,-0.115L0.016,-0.123C0.024,-0.131 0.029,-0.139 0.032,-0.146C0.034,-0.154 0.035,-0.162 0.034,-0.17C0.033,-0.179 0.031,-0.187 0.029,-0.196C0.027,-0.205 0.025,-0.214 0.024,-0.223C0.024,-0.229 0.024,-0.233 0.025,-0.237C0.026,-0.241 0.027,-0.246 0.028,-0.251C0.034,-0.272 0.038,-0.292 0.043,-0.312C0.048,-0.332 0.052,-0.352 0.058,-0.372C0.071,-0.422 0.086,-0.471 0.103,-0.519C0.12,-0.568 0.138,-0.616 0.157,-0.663C0.147,-0.667 0.136,-0.669 0.126,-0.67C0.116,-0.671 0.105,-0.672 0.094,-0.672C0.083,-0.672 0.073,-0.672 0.062,-0.673C0.051,-0.674 0.041,-0.676 0.03,-0.68C0.026,-0.682 0.023,-0.683 0.023,-0.683C0.023,-0.683 0.021,-0.684 0.016,-0.684C0.012,-0.684 0.008,-0.683 0.002,-0.682C-0.004,-0.681 -0.01,-0.681 -0.016,-0.681C-0.021,-0.681 -0.027,-0.681 -0.032,-0.683C-0.037,-0.684 -0.039,-0.687 -0.04,-0.691L-0.04,-0.701C-0.039,-0.712 -0.037,-0.719 -0.033,-0.722C-0.029,-0.726 -0.024,-0.728 -0.019,-0.729C-0.013,-0.73 -0.006,-0.731 0.001,-0.731C0.008,-0.731 0.015,-0.733 0.021,-0.737C0.04,-0.733 0.057,-0.731 0.073,-0.729C0.09,-0.727 0.105,-0.728 0.121,-0.729C0.136,-0.731 0.151,-0.736 0.166,-0.742C0.18,-0.749 0.195,-0.758 0.209,-0.771C0.219,-0.792 0.227,-0.813 0.232,-0.836C0.238,-0.86 0.244,-0.882 0.25,-0.905C0.257,-0.927 0.266,-0.948 0.277,-0.967C0.288,-0.986 0.305,-1.003 0.328,-1.016C0.339,-1.017 0.348,-1.016 0.355,-1.012C0.363,-1.008 0.371,-1.004 0.379,-0.999C0.376,-0.99 0.373,-0.98 0.371,-0.971C0.369,-0.961 0.367,-0.951 0.365,-0.941C0.362,-0.932 0.36,-0.922 0.356,-0.913C0.353,-0.904 0.348,-0.896 0.342,-0.888C0.35,-0.884 0.355,-0.881 0.356,-0.876C0.358,-0.871 0.357,-0.867 0.354,-0.861C0.352,-0.856 0.349,-0.851 0.345,-0.845C0.341,-0.839 0.339,-0.834 0.338,-0.829C0.331,-0.828 0.325,-0.824 0.32,-0.815C0.315,-0.807 0.31,-0.8 0.305,-0.796C0.299,-0.785 0.3,-0.775 0.308,-0.768C0.315,-0.76 0.321,-0.752 0.327,-0.745C0.333,-0.743 0.339,-0.743 0.345,-0.745C0.351,-0.746 0.356,-0.748 0.361,-0.75C0.366,-0.752 0.37,-0.753 0.375,-0.753C0.38,-0.753 0.384,-0.75 0.388,-0.745C0.394,-0.752 0.401,-0.755 0.407,-0.754C0.414,-0.753 0.42,-0.752 0.427,-0.75C0.433,-0.747 0.44,-0.746 0.446,-0.747C0.453,-0.747 0.459,-0.752 0.465,-0.762C0.473,-0.766 0.48,-0.767 0.487,-0.765C0.494,-0.763 0.5,-0.76 0.506,-0.757C0.512,-0.754 0.517,-0.752 0.523,-0.75C0.528,-0.749 0.534,-0.75 0.54,-0.754C0.55,-0.753 0.561,-0.752 0.573,-0.753C0.585,-0.754 0.597,-0.755 0.609,-0.757C0.621,-0.759 0.633,-0.761 0.645,-0.764C0.657,-0.767 0.668,-0.77 0.678,-0.771C0.688,-0.766 0.693,-0.76 0.695,-0.756C0.697,-0.751 0.698,-0.747 0.697,-0.742C0.696,-0.738 0.694,-0.733 0.693,-0.727C0.691,-0.722 0.692,-0.715 0.694,-0.706Z" style="fill:white;fill-rule:nonzero;"/>
            </g>
            <g transform="matrix(16.6667,0,0,16.6667,1129.65,1432.41)">
                <path d="M0.618,-0.116C0.604,-0.087 0.591,-0.064 0.579,-0.047C0.567,-0.03 0.553,-0.016 0.538,-0.004C0.522,0.007 0.504,0.018 0.482,0.027C0.461,0.037 0.434,0.049 0.401,0.064C0.388,0.061 0.376,0.06 0.363,0.062C0.351,0.064 0.339,0.065 0.328,0.065C0.316,0.066 0.305,0.065 0.295,0.062C0.285,0.059 0.275,0.051 0.267,0.038L0.252,0.038C0.253,0.03 0.252,0.021 0.25,0.011C0.247,0.002 0.241,-0.004 0.23,-0.005C0.237,-0.012 0.241,-0.02 0.243,-0.029C0.245,-0.038 0.247,-0.047 0.248,-0.056C0.249,-0.065 0.25,-0.074 0.252,-0.082C0.254,-0.09 0.259,-0.098 0.267,-0.104C0.259,-0.114 0.256,-0.125 0.257,-0.135C0.259,-0.146 0.263,-0.157 0.268,-0.167C0.274,-0.178 0.279,-0.189 0.286,-0.2C0.292,-0.21 0.295,-0.221 0.295,-0.232C0.289,-0.236 0.284,-0.242 0.279,-0.249C0.274,-0.255 0.267,-0.257 0.259,-0.254C0.241,-0.237 0.224,-0.221 0.206,-0.206C0.188,-0.19 0.171,-0.174 0.155,-0.158C0.138,-0.142 0.123,-0.125 0.108,-0.107C0.093,-0.089 0.08,-0.069 0.067,-0.048C0.056,-0.046 0.048,-0.041 0.042,-0.032C0.036,-0.024 0.031,-0.015 0.026,-0.005C0.022,0.004 0.017,0.013 0.011,0.021C0.006,0.03 -0.002,0.035 -0.012,0.038L-0.032,0.102C-0.036,0.1 -0.041,0.098 -0.047,0.097C-0.054,0.095 -0.06,0.094 -0.065,0.092C-0.071,0.09 -0.076,0.087 -0.081,0.084C-0.086,0.082 -0.089,0.078 -0.09,0.073C-0.09,0.072 -0.091,0.069 -0.09,0.065C-0.09,0.061 -0.09,0.058 -0.09,0.057C-0.089,0.038 -0.084,0.021 -0.076,0.005C-0.068,-0.011 -0.059,-0.026 -0.05,-0.042C-0.041,-0.057 -0.032,-0.072 -0.024,-0.088C-0.017,-0.104 -0.012,-0.121 -0.012,-0.14C-0.002,-0.14 0.004,-0.143 0.007,-0.148C0.01,-0.154 0.013,-0.16 0.014,-0.167C0.016,-0.174 0.018,-0.179 0.021,-0.185C0.023,-0.19 0.029,-0.192 0.038,-0.19C0.032,-0.198 0.03,-0.207 0.031,-0.216C0.032,-0.226 0.034,-0.235 0.038,-0.245C0.042,-0.254 0.047,-0.263 0.053,-0.272C0.059,-0.281 0.063,-0.289 0.067,-0.296C0.067,-0.305 0.068,-0.314 0.07,-0.323C0.072,-0.332 0.076,-0.34 0.082,-0.348C0.088,-0.355 0.093,-0.362 0.098,-0.368C0.102,-0.375 0.107,-0.382 0.111,-0.389C0.114,-0.392 0.116,-0.396 0.118,-0.399C0.119,-0.403 0.121,-0.407 0.123,-0.41C0.129,-0.419 0.133,-0.428 0.135,-0.437C0.137,-0.446 0.139,-0.456 0.141,-0.465C0.143,-0.475 0.147,-0.483 0.151,-0.491C0.155,-0.498 0.163,-0.504 0.174,-0.509C0.174,-0.516 0.175,-0.523 0.177,-0.529L0.192,-0.567C0.194,-0.573 0.195,-0.58 0.195,-0.587C0.197,-0.59 0.2,-0.593 0.204,-0.597C0.208,-0.6 0.212,-0.603 0.215,-0.606C0.218,-0.61 0.221,-0.613 0.223,-0.617C0.225,-0.62 0.225,-0.625 0.224,-0.63C0.224,-0.638 0.224,-0.647 0.223,-0.656C0.222,-0.665 0.225,-0.673 0.23,-0.68C0.229,-0.688 0.23,-0.695 0.234,-0.7C0.237,-0.705 0.242,-0.71 0.247,-0.714C0.252,-0.718 0.258,-0.722 0.264,-0.725C0.27,-0.729 0.276,-0.733 0.28,-0.737C0.277,-0.742 0.276,-0.747 0.278,-0.753C0.28,-0.759 0.283,-0.764 0.287,-0.77C0.29,-0.776 0.294,-0.781 0.299,-0.786C0.303,-0.791 0.307,-0.796 0.309,-0.8C0.313,-0.808 0.316,-0.815 0.319,-0.823C0.322,-0.831 0.325,-0.838 0.329,-0.845C0.333,-0.852 0.338,-0.858 0.343,-0.864C0.349,-0.87 0.356,-0.875 0.365,-0.879C0.363,-0.892 0.363,-0.902 0.368,-0.909C0.372,-0.916 0.378,-0.923 0.385,-0.928C0.393,-0.933 0.401,-0.938 0.409,-0.943C0.418,-0.948 0.424,-0.955 0.43,-0.964C0.437,-0.966 0.445,-0.968 0.453,-0.97C0.462,-0.972 0.47,-0.974 0.479,-0.975C0.487,-0.976 0.495,-0.976 0.503,-0.975C0.511,-0.973 0.518,-0.97 0.524,-0.964C0.527,-0.961 0.529,-0.96 0.529,-0.959C0.53,-0.958 0.53,-0.958 0.53,-0.958C0.53,-0.957 0.53,-0.957 0.531,-0.956C0.531,-0.955 0.533,-0.953 0.535,-0.95C0.538,-0.948 0.54,-0.945 0.543,-0.943C0.546,-0.941 0.548,-0.938 0.551,-0.935C0.551,-0.93 0.551,-0.925 0.551,-0.919C0.55,-0.914 0.55,-0.909 0.55,-0.903C0.55,-0.898 0.551,-0.893 0.552,-0.889C0.554,-0.884 0.558,-0.881 0.564,-0.879C0.559,-0.86 0.557,-0.84 0.558,-0.818C0.558,-0.797 0.559,-0.775 0.559,-0.753C0.559,-0.732 0.557,-0.711 0.554,-0.69C0.55,-0.67 0.542,-0.652 0.528,-0.637L0.521,-0.587C0.513,-0.586 0.507,-0.583 0.504,-0.579C0.501,-0.574 0.498,-0.568 0.497,-0.562C0.496,-0.555 0.495,-0.548 0.494,-0.541C0.493,-0.534 0.49,-0.528 0.486,-0.523C0.481,-0.517 0.476,-0.509 0.471,-0.501C0.465,-0.493 0.46,-0.485 0.454,-0.478C0.448,-0.47 0.442,-0.464 0.434,-0.459C0.427,-0.455 0.418,-0.452 0.408,-0.452C0.407,-0.448 0.404,-0.444 0.4,-0.438C0.396,-0.433 0.392,-0.428 0.387,-0.423C0.382,-0.418 0.377,-0.414 0.372,-0.411C0.367,-0.407 0.362,-0.405 0.358,-0.403C0.353,-0.401 0.348,-0.4 0.344,-0.399C0.34,-0.398 0.335,-0.396 0.33,-0.393C0.324,-0.389 0.318,-0.385 0.313,-0.38C0.307,-0.375 0.3,-0.37 0.294,-0.366C0.287,-0.362 0.281,-0.36 0.273,-0.358C0.266,-0.356 0.259,-0.357 0.252,-0.36C0.243,-0.35 0.234,-0.344 0.223,-0.341C0.212,-0.339 0.202,-0.337 0.192,-0.336C0.182,-0.335 0.172,-0.333 0.164,-0.33C0.155,-0.326 0.148,-0.318 0.144,-0.306C0.142,-0.304 0.141,-0.302 0.14,-0.297C0.139,-0.293 0.139,-0.29 0.139,-0.289C0.139,-0.282 0.138,-0.273 0.138,-0.263C0.137,-0.252 0.14,-0.244 0.146,-0.239C0.169,-0.25 0.191,-0.264 0.212,-0.279C0.234,-0.294 0.256,-0.307 0.28,-0.317L0.287,-0.31C0.289,-0.324 0.295,-0.331 0.306,-0.332C0.316,-0.332 0.327,-0.332 0.338,-0.331L0.345,-0.331C0.346,-0.331 0.347,-0.331 0.348,-0.332C0.349,-0.332 0.35,-0.332 0.352,-0.332C0.364,-0.332 0.372,-0.327 0.376,-0.317C0.38,-0.308 0.383,-0.298 0.387,-0.289C0.38,-0.281 0.374,-0.272 0.37,-0.261C0.365,-0.25 0.361,-0.239 0.358,-0.228C0.354,-0.216 0.35,-0.204 0.346,-0.193C0.342,-0.181 0.336,-0.171 0.329,-0.161C0.335,-0.158 0.338,-0.154 0.337,-0.15C0.336,-0.146 0.335,-0.143 0.333,-0.139C0.332,-0.135 0.331,-0.131 0.332,-0.127C0.333,-0.124 0.337,-0.121 0.345,-0.119C0.338,-0.115 0.334,-0.109 0.332,-0.103C0.329,-0.097 0.327,-0.09 0.326,-0.083C0.324,-0.077 0.322,-0.07 0.32,-0.064C0.318,-0.058 0.314,-0.052 0.309,-0.048C0.311,-0.042 0.313,-0.036 0.315,-0.031C0.317,-0.025 0.317,-0.019 0.315,-0.012C0.325,0 0.334,0.007 0.343,0.008C0.353,0.009 0.362,0.008 0.371,0.006C0.38,0.003 0.39,0.001 0.399,-0.002C0.409,-0.005 0.419,-0.004 0.43,0C0.448,-0.012 0.461,-0.02 0.468,-0.022C0.475,-0.025 0.481,-0.027 0.485,-0.028C0.489,-0.03 0.494,-0.033 0.5,-0.037C0.506,-0.042 0.517,-0.052 0.533,-0.067C0.549,-0.072 0.564,-0.079 0.577,-0.09C0.589,-0.1 0.603,-0.109 0.618,-0.116ZM0.473,-0.914C0.473,-0.906 0.472,-0.9 0.467,-0.896C0.463,-0.892 0.458,-0.888 0.453,-0.884C0.448,-0.881 0.443,-0.877 0.438,-0.874C0.433,-0.87 0.43,-0.865 0.43,-0.857C0.421,-0.854 0.416,-0.848 0.413,-0.842C0.41,-0.835 0.408,-0.829 0.407,-0.822C0.405,-0.815 0.403,-0.808 0.399,-0.802C0.396,-0.795 0.39,-0.79 0.38,-0.786L0.387,-0.779C0.365,-0.76 0.348,-0.737 0.335,-0.71C0.323,-0.683 0.312,-0.657 0.302,-0.63C0.293,-0.62 0.286,-0.609 0.282,-0.597C0.278,-0.585 0.275,-0.573 0.271,-0.561C0.267,-0.549 0.263,-0.538 0.257,-0.527C0.252,-0.516 0.243,-0.508 0.23,-0.502C0.237,-0.493 0.239,-0.486 0.238,-0.479C0.236,-0.471 0.233,-0.465 0.228,-0.458C0.222,-0.451 0.217,-0.445 0.211,-0.438C0.206,-0.432 0.203,-0.425 0.202,-0.417C0.215,-0.414 0.227,-0.415 0.239,-0.418C0.251,-0.421 0.263,-0.426 0.274,-0.432C0.286,-0.438 0.297,-0.445 0.308,-0.453C0.318,-0.461 0.328,-0.468 0.338,-0.474L0.345,-0.467C0.374,-0.483 0.398,-0.503 0.417,-0.526C0.437,-0.549 0.455,-0.574 0.473,-0.602C0.467,-0.606 0.464,-0.611 0.465,-0.616L0.475,-0.64C0.481,-0.659 0.486,-0.677 0.489,-0.694C0.498,-0.729 0.504,-0.765 0.507,-0.8C0.511,-0.836 0.513,-0.871 0.515,-0.907L0.473,-0.914Z" style="fill:white;fill-rule:nonzero;"/>
            </g>
            <g transform="matrix(16.6667,0,0,16.6667,1139.28,1432.41)">
                <path d="M0.724,-0.299C0.718,-0.293 0.713,-0.288 0.71,-0.285L0.695,-0.267C0.692,-0.263 0.688,-0.258 0.682,-0.252C0.676,-0.247 0.672,-0.241 0.667,-0.235C0.662,-0.229 0.657,-0.224 0.651,-0.22C0.644,-0.222 0.638,-0.221 0.633,-0.217C0.629,-0.213 0.625,-0.208 0.622,-0.204C0.618,-0.199 0.615,-0.194 0.612,-0.19C0.609,-0.186 0.605,-0.184 0.601,-0.185C0.585,-0.176 0.569,-0.169 0.554,-0.163C0.538,-0.156 0.523,-0.147 0.509,-0.136L0.501,-0.144L0.399,-0.095C0.396,-0.093 0.393,-0.091 0.39,-0.089C0.386,-0.086 0.383,-0.084 0.38,-0.082C0.366,-0.074 0.351,-0.067 0.335,-0.061C0.32,-0.055 0.305,-0.049 0.29,-0.044L0.277,-0.04C0.283,-0.027 0.283,-0.018 0.277,-0.013C0.272,-0.007 0.265,-0.004 0.255,-0.001C0.245,0.001 0.234,0.002 0.223,0.003C0.211,0.004 0.202,0.006 0.195,0.01C0.188,0.008 0.18,0.008 0.171,0.008C0.163,0.009 0.155,0.009 0.146,0.011C0.137,0.012 0.129,0.013 0.121,0.013C0.113,0.013 0.105,0.012 0.096,0.01L0.094,0.01C0.083,0.015 0.073,0.016 0.065,0.013C0.057,0.01 0.049,0.005 0.043,-0.001C0.036,-0.008 0.03,-0.016 0.025,-0.026C0.019,-0.035 0.014,-0.044 0.008,-0.052C0.004,-0.057 -0.001,-0.064 -0.007,-0.074C-0.013,-0.084 -0.018,-0.094 -0.022,-0.105C-0.026,-0.117 -0.029,-0.128 -0.03,-0.139C-0.031,-0.151 -0.028,-0.16 -0.022,-0.169C-0.017,-0.177 -0.012,-0.187 -0.008,-0.196C-0.005,-0.206 -0.003,-0.217 -0.003,-0.23L-0.004,-0.256C-0.001,-0.256 0.003,-0.256 0.007,-0.255C0.011,-0.255 0.014,-0.255 0.018,-0.255C0.022,-0.256 0.025,-0.257 0.027,-0.259C0.029,-0.262 0.03,-0.266 0.03,-0.271C0.03,-0.275 0.029,-0.277 0.027,-0.279C0.025,-0.281 0.023,-0.283 0.022,-0.285C0.026,-0.291 0.03,-0.296 0.034,-0.299C0.037,-0.303 0.04,-0.306 0.043,-0.31C0.046,-0.314 0.048,-0.318 0.049,-0.323C0.05,-0.328 0.05,-0.334 0.048,-0.343C0.056,-0.356 0.065,-0.369 0.076,-0.379C0.086,-0.39 0.098,-0.4 0.109,-0.41C0.121,-0.419 0.133,-0.428 0.146,-0.438C0.158,-0.447 0.17,-0.456 0.181,-0.467C0.193,-0.462 0.203,-0.462 0.21,-0.467C0.218,-0.472 0.225,-0.478 0.23,-0.484C0.236,-0.49 0.242,-0.495 0.248,-0.499C0.254,-0.503 0.262,-0.501 0.271,-0.494L0.273,-0.492C0.291,-0.51 0.309,-0.518 0.327,-0.516C0.345,-0.514 0.36,-0.508 0.373,-0.498C0.385,-0.488 0.394,-0.477 0.397,-0.464C0.401,-0.452 0.398,-0.443 0.387,-0.438C0.394,-0.431 0.397,-0.423 0.397,-0.413C0.397,-0.403 0.395,-0.395 0.39,-0.388C0.384,-0.38 0.379,-0.372 0.375,-0.364C0.37,-0.356 0.366,-0.347 0.361,-0.338C0.355,-0.323 0.348,-0.309 0.34,-0.295C0.332,-0.282 0.321,-0.271 0.307,-0.262C0.295,-0.265 0.287,-0.264 0.283,-0.258C0.278,-0.252 0.275,-0.246 0.273,-0.239C0.271,-0.232 0.269,-0.227 0.267,-0.223C0.264,-0.219 0.258,-0.22 0.25,-0.227L0.248,-0.229L0.246,-0.227C0.241,-0.221 0.237,-0.215 0.234,-0.209C0.231,-0.202 0.227,-0.198 0.222,-0.194C0.216,-0.196 0.21,-0.198 0.203,-0.199C0.197,-0.201 0.19,-0.202 0.185,-0.203C0.185,-0.189 0.182,-0.179 0.177,-0.171C0.172,-0.163 0.165,-0.157 0.157,-0.152C0.149,-0.147 0.139,-0.143 0.129,-0.14C0.118,-0.137 0.108,-0.134 0.098,-0.129C0.088,-0.125 0.079,-0.12 0.07,-0.114C0.061,-0.108 0.054,-0.099 0.049,-0.088C0.055,-0.081 0.063,-0.077 0.073,-0.076C0.083,-0.075 0.093,-0.075 0.104,-0.076C0.114,-0.077 0.124,-0.077 0.134,-0.077C0.144,-0.077 0.153,-0.075 0.161,-0.069L0.162,-0.068L0.163,-0.069C0.179,-0.071 0.194,-0.075 0.208,-0.081C0.223,-0.086 0.237,-0.092 0.251,-0.098C0.265,-0.104 0.28,-0.11 0.294,-0.116C0.309,-0.121 0.324,-0.125 0.34,-0.128C0.343,-0.123 0.347,-0.12 0.353,-0.119C0.359,-0.118 0.364,-0.119 0.369,-0.12L0.37,-0.122C0.371,-0.127 0.373,-0.131 0.374,-0.134C0.375,-0.138 0.377,-0.142 0.38,-0.146C0.384,-0.154 0.39,-0.159 0.396,-0.163C0.403,-0.167 0.41,-0.17 0.417,-0.172C0.425,-0.174 0.433,-0.175 0.441,-0.176C0.45,-0.176 0.458,-0.177 0.467,-0.179L0.469,-0.179L0.47,-0.182C0.472,-0.189 0.476,-0.195 0.48,-0.198C0.484,-0.201 0.489,-0.203 0.494,-0.204C0.499,-0.205 0.504,-0.206 0.509,-0.207C0.515,-0.208 0.52,-0.21 0.525,-0.213C0.537,-0.209 0.547,-0.21 0.555,-0.217C0.563,-0.223 0.57,-0.23 0.577,-0.237L0.585,-0.228L0.588,-0.231C0.598,-0.241 0.605,-0.247 0.61,-0.252C0.615,-0.257 0.619,-0.261 0.624,-0.264C0.629,-0.268 0.634,-0.271 0.64,-0.275C0.646,-0.278 0.655,-0.284 0.666,-0.291C0.675,-0.297 0.684,-0.303 0.693,-0.309C0.702,-0.314 0.71,-0.321 0.719,-0.328C0.722,-0.327 0.724,-0.324 0.724,-0.321L0.724,-0.311C0.723,-0.309 0.722,-0.307 0.722,-0.305C0.722,-0.302 0.722,-0.3 0.724,-0.299ZM0.319,-0.421C0.319,-0.422 0.318,-0.422 0.318,-0.422C0.318,-0.422 0.317,-0.422 0.316,-0.423C0.303,-0.43 0.291,-0.433 0.282,-0.433C0.273,-0.433 0.265,-0.43 0.257,-0.425C0.25,-0.42 0.243,-0.414 0.237,-0.407C0.231,-0.399 0.224,-0.392 0.217,-0.386C0.21,-0.38 0.202,-0.375 0.193,-0.372C0.184,-0.369 0.173,-0.369 0.16,-0.373C0.158,-0.363 0.156,-0.352 0.155,-0.342C0.153,-0.332 0.152,-0.322 0.151,-0.312C0.14,-0.308 0.132,-0.302 0.125,-0.295C0.119,-0.288 0.114,-0.28 0.11,-0.271C0.106,-0.263 0.102,-0.254 0.098,-0.245C0.095,-0.235 0.09,-0.226 0.084,-0.218L0.088,-0.213C0.09,-0.214 0.093,-0.213 0.097,-0.21C0.1,-0.207 0.102,-0.204 0.104,-0.203C0.111,-0.214 0.12,-0.222 0.132,-0.229C0.144,-0.237 0.157,-0.243 0.169,-0.25C0.182,-0.256 0.194,-0.262 0.206,-0.27C0.218,-0.277 0.227,-0.286 0.232,-0.298C0.253,-0.304 0.269,-0.315 0.279,-0.333C0.29,-0.351 0.299,-0.369 0.306,-0.388C0.307,-0.392 0.309,-0.397 0.313,-0.405C0.317,-0.412 0.319,-0.418 0.319,-0.421Z" style="fill:white;fill-rule:nonzero;"/>
            </g>
        </g>
        <g transform="matrix(0.906788,0,0,0.906788,340.919,334.887)">
            <g transform="matrix(39.5833,0,0,39.5833,1042.09,1508.1)">
                <path d="M-0.004,-0.045C0.052,-0.086 0.109,-0.193 0.167,-0.364C0.2,-0.464 0.223,-0.554 0.236,-0.635C0.239,-0.657 0.241,-0.674 0.241,-0.687C0.228,-0.686 0.215,-0.682 0.204,-0.676L0.167,-0.655C0.157,-0.649 0.144,-0.654 0.127,-0.668C0.11,-0.682 0.103,-0.694 0.104,-0.704C0.106,-0.714 0.111,-0.722 0.121,-0.729C0.13,-0.735 0.142,-0.741 0.154,-0.745C0.181,-0.755 0.203,-0.759 0.221,-0.759C0.24,-0.759 0.255,-0.758 0.269,-0.755C0.283,-0.752 0.296,-0.748 0.307,-0.741C0.333,-0.726 0.347,-0.705 0.347,-0.677C0.348,-0.628 0.332,-0.546 0.298,-0.43C0.244,-0.246 0.18,-0.117 0.107,-0.042C0.088,-0.021 0.067,-0.007 0.045,0C0.04,0.002 0.034,0.003 0.028,0.003C0.022,0.003 0.016,0.002 0.011,0C0.006,-0.002 0.002,-0.005 -0.001,-0.008C-0.008,-0.014 -0.011,-0.021 -0.011,-0.028C-0.011,-0.036 -0.009,-0.041 -0.004,-0.045Z" style="fill:rgb(242,213,13);fill-rule:nonzero;"/>
            </g>
            <g transform="matrix(39.5833,0,0,39.5833,1053.28,1508.1)">
                <path d="M0.387,-0.413C0.377,-0.413 0.363,-0.403 0.344,-0.384C0.326,-0.365 0.31,-0.347 0.296,-0.331L0.254,-0.281L0.174,-0.179C0.155,-0.143 0.141,-0.114 0.13,-0.09L0.104,-0.033C0.097,-0.019 0.091,-0.009 0.086,-0.004C0.081,0.002 0.074,0.005 0.065,0.005C0.057,0.005 0.048,0.003 0.04,0C0.032,-0.003 0.025,-0.007 0.02,-0.012C0.007,-0.022 0.001,-0.034 0.001,-0.046C0.001,-0.051 0.005,-0.06 0.012,-0.075L0.03,-0.114C0.036,-0.126 0.043,-0.141 0.051,-0.159L0.078,-0.226C0.117,-0.322 0.136,-0.384 0.136,-0.412C0.136,-0.427 0.131,-0.438 0.121,-0.445L0.111,-0.452C0.108,-0.454 0.106,-0.458 0.106,-0.464C0.106,-0.47 0.109,-0.475 0.113,-0.48C0.117,-0.486 0.123,-0.49 0.13,-0.494C0.145,-0.502 0.16,-0.505 0.175,-0.505C0.189,-0.505 0.201,-0.504 0.209,-0.5C0.217,-0.497 0.224,-0.493 0.229,-0.487C0.242,-0.476 0.248,-0.464 0.248,-0.452C0.248,-0.439 0.246,-0.427 0.243,-0.414C0.24,-0.402 0.236,-0.389 0.231,-0.376C0.226,-0.363 0.222,-0.351 0.216,-0.338C0.211,-0.326 0.206,-0.315 0.202,-0.306L0.192,-0.285C0.19,-0.28 0.189,-0.278 0.19,-0.28C0.227,-0.33 0.25,-0.363 0.262,-0.377L0.296,-0.418C0.321,-0.447 0.341,-0.467 0.355,-0.476C0.384,-0.496 0.407,-0.505 0.423,-0.505C0.44,-0.505 0.454,-0.503 0.465,-0.499C0.477,-0.495 0.487,-0.489 0.495,-0.481C0.513,-0.464 0.522,-0.443 0.522,-0.417C0.522,-0.392 0.516,-0.365 0.504,-0.337C0.493,-0.309 0.483,-0.286 0.474,-0.269C0.465,-0.251 0.457,-0.234 0.449,-0.216C0.425,-0.161 0.413,-0.122 0.413,-0.097C0.413,-0.086 0.421,-0.081 0.439,-0.081C0.453,-0.081 0.465,-0.083 0.476,-0.089C0.488,-0.095 0.495,-0.098 0.498,-0.098C0.505,-0.098 0.508,-0.095 0.508,-0.088C0.508,-0.059 0.493,-0.035 0.464,-0.015C0.444,-0.002 0.426,0.005 0.409,0.005C0.393,0.005 0.379,0.003 0.368,0C0.357,-0.004 0.347,-0.01 0.339,-0.018C0.32,-0.035 0.31,-0.059 0.31,-0.09C0.31,-0.128 0.322,-0.175 0.346,-0.231C0.363,-0.27 0.375,-0.297 0.382,-0.311L0.399,-0.346C0.409,-0.367 0.414,-0.383 0.414,-0.395C0.414,-0.407 0.405,-0.413 0.387,-0.413Z" style="fill:rgb(242,213,13);fill-rule:nonzero;"/>
            </g>
            <g transform="matrix(39.5833,0,0,39.5833,1073.7,1508.1)">
                <path d="M0.319,-0.128C0.329,-0.128 0.333,-0.122 0.333,-0.109C0.333,-0.098 0.33,-0.088 0.324,-0.078C0.315,-0.059 0.297,-0.041 0.271,-0.024C0.241,-0.005 0.211,0.005 0.181,0.005C0.128,0.005 0.095,-0.019 0.081,-0.065C0.064,-0.121 0.089,-0.239 0.156,-0.419C0.118,-0.423 0.098,-0.429 0.095,-0.439C0.094,-0.442 0.093,-0.445 0.093,-0.448C0.093,-0.452 0.095,-0.456 0.098,-0.46C0.101,-0.465 0.105,-0.469 0.11,-0.474C0.121,-0.483 0.133,-0.488 0.145,-0.488L0.183,-0.488C0.218,-0.57 0.243,-0.617 0.258,-0.628C0.265,-0.634 0.273,-0.636 0.282,-0.636C0.291,-0.636 0.298,-0.635 0.304,-0.633C0.31,-0.631 0.315,-0.627 0.32,-0.623C0.33,-0.613 0.335,-0.602 0.335,-0.59C0.335,-0.584 0.333,-0.576 0.33,-0.568L0.293,-0.489L0.305,-0.489C0.325,-0.489 0.342,-0.489 0.354,-0.49C0.354,-0.49 0.363,-0.49 0.382,-0.49C0.388,-0.491 0.396,-0.491 0.405,-0.491C0.414,-0.491 0.419,-0.487 0.419,-0.48C0.419,-0.438 0.368,-0.416 0.267,-0.416L0.263,-0.416L0.229,-0.33C0.192,-0.229 0.173,-0.157 0.173,-0.117C0.173,-0.105 0.176,-0.096 0.181,-0.09C0.186,-0.084 0.196,-0.081 0.21,-0.081C0.225,-0.081 0.238,-0.083 0.25,-0.088C0.261,-0.093 0.271,-0.098 0.28,-0.104C0.289,-0.11 0.297,-0.116 0.303,-0.121C0.309,-0.125 0.315,-0.128 0.319,-0.128Z" style="fill:rgb(242,213,13);fill-rule:nonzero;"/>
            </g>
            <g transform="matrix(39.5833,0,0,39.5833,1086.13,1508.1)">
                <path d="M0.04,-0.171C0.041,-0.199 0.046,-0.226 0.054,-0.252C0.062,-0.278 0.073,-0.303 0.087,-0.327C0.101,-0.352 0.117,-0.375 0.135,-0.396C0.153,-0.418 0.173,-0.437 0.195,-0.453C0.241,-0.488 0.288,-0.505 0.336,-0.505C0.392,-0.505 0.429,-0.482 0.447,-0.437C0.454,-0.421 0.457,-0.402 0.457,-0.381C0.456,-0.36 0.452,-0.34 0.444,-0.322C0.437,-0.304 0.426,-0.288 0.412,-0.273C0.398,-0.258 0.382,-0.245 0.363,-0.233C0.344,-0.221 0.323,-0.211 0.3,-0.203C0.254,-0.187 0.205,-0.178 0.152,-0.178C0.151,-0.173 0.15,-0.166 0.149,-0.157C0.149,-0.148 0.15,-0.138 0.152,-0.127C0.155,-0.115 0.159,-0.105 0.164,-0.097C0.176,-0.077 0.193,-0.067 0.215,-0.067C0.253,-0.067 0.289,-0.078 0.325,-0.101C0.338,-0.108 0.348,-0.116 0.356,-0.124C0.364,-0.132 0.371,-0.136 0.377,-0.136C0.383,-0.136 0.388,-0.132 0.392,-0.125C0.397,-0.118 0.399,-0.11 0.399,-0.102C0.399,-0.084 0.394,-0.069 0.384,-0.057C0.343,-0.016 0.282,0.005 0.201,0.005C0.153,0.005 0.115,-0.009 0.086,-0.038C0.053,-0.071 0.038,-0.115 0.04,-0.171ZM0.325,-0.44C0.291,-0.44 0.258,-0.417 0.227,-0.37C0.2,-0.33 0.178,-0.282 0.162,-0.227C0.216,-0.232 0.264,-0.254 0.304,-0.291C0.34,-0.326 0.359,-0.36 0.359,-0.392C0.359,-0.424 0.348,-0.44 0.325,-0.44Z" style="fill:rgb(242,213,13);fill-rule:nonzero;"/>
            </g>
            <g transform="matrix(39.5833,0,0,39.5833,1103.02,1508.1)">
                <path d="M0.037,-0.012C0.031,-0.017 0.025,-0.022 0.021,-0.028C0.018,-0.034 0.015,-0.039 0.015,-0.044C0.015,-0.048 0.016,-0.053 0.018,-0.06C0.02,-0.066 0.023,-0.074 0.026,-0.083C0.093,-0.246 0.126,-0.356 0.126,-0.412C0.125,-0.428 0.12,-0.439 0.11,-0.445L0.1,-0.452C0.097,-0.454 0.096,-0.458 0.095,-0.464C0.095,-0.47 0.097,-0.475 0.102,-0.48C0.106,-0.486 0.111,-0.49 0.118,-0.494C0.132,-0.502 0.147,-0.505 0.161,-0.505C0.176,-0.505 0.188,-0.504 0.196,-0.5C0.204,-0.497 0.211,-0.493 0.217,-0.487C0.23,-0.476 0.236,-0.463 0.236,-0.45C0.236,-0.437 0.235,-0.424 0.232,-0.411C0.229,-0.397 0.225,-0.384 0.221,-0.371C0.216,-0.358 0.212,-0.346 0.208,-0.335C0.204,-0.323 0.201,-0.315 0.2,-0.309C0.197,-0.298 0.196,-0.291 0.197,-0.288C0.205,-0.294 0.209,-0.301 0.211,-0.308L0.23,-0.344C0.272,-0.42 0.314,-0.47 0.354,-0.495C0.366,-0.502 0.38,-0.505 0.396,-0.505C0.413,-0.505 0.426,-0.5 0.436,-0.488C0.446,-0.476 0.451,-0.464 0.452,-0.45C0.452,-0.436 0.451,-0.424 0.449,-0.415C0.447,-0.406 0.443,-0.397 0.438,-0.389C0.427,-0.37 0.414,-0.361 0.399,-0.361C0.395,-0.361 0.391,-0.363 0.387,-0.366L0.376,-0.375C0.366,-0.384 0.355,-0.389 0.345,-0.389C0.336,-0.389 0.323,-0.383 0.309,-0.37C0.295,-0.357 0.28,-0.34 0.265,-0.319C0.214,-0.251 0.172,-0.175 0.139,-0.091L0.118,-0.034C0.112,-0.02 0.107,-0.01 0.103,-0.004C0.099,0.002 0.093,0.005 0.084,0.005C0.076,0.005 0.068,0.003 0.059,0C0.051,-0.003 0.044,-0.007 0.037,-0.012Z" style="fill:rgb(242,213,13);fill-rule:nonzero;"/>
            </g>
            <g transform="matrix(39.5833,0,0,39.5833,1117.38,1508.1)">
                <path d="M0.412,-0.13C0.412,-0.1 0.423,-0.085 0.444,-0.085C0.458,-0.085 0.471,-0.087 0.48,-0.092C0.49,-0.096 0.496,-0.099 0.5,-0.099C0.506,-0.099 0.51,-0.095 0.51,-0.088C0.51,-0.06 0.495,-0.036 0.466,-0.016C0.435,0.006 0.403,0.011 0.371,0C0.35,-0.007 0.334,-0.024 0.324,-0.048C0.319,-0.061 0.317,-0.073 0.317,-0.083C0.317,-0.1 0.319,-0.118 0.322,-0.137C0.292,-0.075 0.254,-0.032 0.209,-0.009C0.191,0 0.172,0.005 0.152,0.005C0.132,0.005 0.114,0.001 0.099,-0.008C0.085,-0.016 0.072,-0.027 0.062,-0.042C0.04,-0.073 0.031,-0.111 0.033,-0.157C0.035,-0.215 0.052,-0.272 0.084,-0.328C0.114,-0.38 0.151,-0.422 0.196,-0.455C0.242,-0.489 0.284,-0.505 0.323,-0.505C0.363,-0.505 0.394,-0.487 0.418,-0.451C0.441,-0.487 0.461,-0.505 0.478,-0.505C0.497,-0.505 0.511,-0.502 0.52,-0.495C0.538,-0.482 0.544,-0.471 0.539,-0.461C0.457,-0.294 0.415,-0.189 0.413,-0.148C0.412,-0.143 0.412,-0.136 0.412,-0.13ZM0.141,-0.128C0.141,-0.089 0.154,-0.069 0.179,-0.069C0.198,-0.069 0.222,-0.086 0.25,-0.118C0.291,-0.166 0.327,-0.23 0.358,-0.312C0.368,-0.337 0.377,-0.362 0.384,-0.388C0.382,-0.41 0.373,-0.426 0.356,-0.437C0.35,-0.44 0.341,-0.442 0.33,-0.442C0.318,-0.442 0.305,-0.438 0.289,-0.429C0.274,-0.421 0.259,-0.409 0.244,-0.395C0.23,-0.38 0.216,-0.363 0.204,-0.343C0.191,-0.323 0.18,-0.301 0.171,-0.277C0.151,-0.227 0.141,-0.177 0.141,-0.128Z" style="fill:rgb(242,213,13);fill-rule:nonzero;"/>
            </g>
            <g transform="matrix(39.5833,0,0,39.5833,1137.03,1508.1)">
                <path d="M0.033,-0.168C0.034,-0.197 0.038,-0.225 0.047,-0.253C0.055,-0.281 0.066,-0.308 0.08,-0.333C0.094,-0.358 0.11,-0.381 0.129,-0.402C0.148,-0.424 0.169,-0.442 0.191,-0.457C0.238,-0.489 0.288,-0.505 0.339,-0.505C0.393,-0.505 0.429,-0.484 0.448,-0.441C0.455,-0.426 0.458,-0.409 0.458,-0.389C0.457,-0.37 0.454,-0.352 0.448,-0.336C0.442,-0.32 0.435,-0.306 0.426,-0.293C0.406,-0.264 0.386,-0.25 0.366,-0.25C0.344,-0.25 0.327,-0.256 0.316,-0.269C0.307,-0.279 0.304,-0.292 0.308,-0.306C0.309,-0.31 0.312,-0.314 0.316,-0.318C0.321,-0.321 0.327,-0.326 0.335,-0.334C0.356,-0.356 0.367,-0.382 0.368,-0.412C0.369,-0.432 0.356,-0.442 0.331,-0.442C0.304,-0.442 0.275,-0.427 0.245,-0.396C0.201,-0.351 0.171,-0.294 0.153,-0.225C0.137,-0.164 0.14,-0.12 0.162,-0.092C0.174,-0.076 0.192,-0.067 0.213,-0.067C0.25,-0.067 0.286,-0.08 0.32,-0.106C0.33,-0.115 0.339,-0.123 0.345,-0.131C0.352,-0.14 0.358,-0.144 0.363,-0.144C0.369,-0.144 0.373,-0.141 0.377,-0.136C0.381,-0.131 0.383,-0.124 0.383,-0.115C0.383,-0.096 0.374,-0.077 0.357,-0.059C0.313,-0.016 0.259,0.005 0.197,0.005C0.144,0.005 0.103,-0.01 0.074,-0.041C0.046,-0.07 0.032,-0.113 0.033,-0.168Z" style="fill:rgb(242,213,13);fill-rule:nonzero;"/>
            </g>
            <g transform="matrix(39.5833,0,0,39.5833,1153.67,1508.1)">
                <path d="M0.319,-0.128C0.329,-0.128 0.333,-0.122 0.333,-0.109C0.333,-0.098 0.33,-0.088 0.324,-0.078C0.315,-0.059 0.297,-0.041 0.271,-0.024C0.241,-0.005 0.211,0.005 0.181,0.005C0.128,0.005 0.095,-0.019 0.081,-0.065C0.064,-0.121 0.089,-0.239 0.156,-0.419C0.118,-0.423 0.098,-0.429 0.095,-0.439C0.094,-0.442 0.093,-0.445 0.093,-0.448C0.093,-0.452 0.095,-0.456 0.098,-0.46C0.101,-0.465 0.105,-0.469 0.11,-0.474C0.121,-0.483 0.133,-0.488 0.145,-0.488L0.183,-0.488C0.218,-0.57 0.243,-0.617 0.258,-0.628C0.265,-0.634 0.273,-0.636 0.282,-0.636C0.291,-0.636 0.298,-0.635 0.304,-0.633C0.31,-0.631 0.315,-0.627 0.32,-0.623C0.33,-0.613 0.335,-0.602 0.335,-0.59C0.335,-0.584 0.333,-0.576 0.33,-0.568L0.293,-0.489L0.305,-0.489C0.325,-0.489 0.342,-0.489 0.354,-0.49C0.354,-0.49 0.363,-0.49 0.382,-0.49C0.388,-0.491 0.396,-0.491 0.405,-0.491C0.414,-0.491 0.419,-0.487 0.419,-0.48C0.419,-0.438 0.368,-0.416 0.267,-0.416L0.263,-0.416L0.229,-0.33C0.192,-0.229 0.173,-0.157 0.173,-0.117C0.173,-0.105 0.176,-0.096 0.181,-0.09C0.186,-0.084 0.196,-0.081 0.21,-0.081C0.225,-0.081 0.238,-0.083 0.25,-0.088C0.261,-0.093 0.271,-0.098 0.28,-0.104C0.289,-0.11 0.297,-0.116 0.303,-0.121C0.309,-0.125 0.315,-0.128 0.319,-0.128Z" style="fill:rgb(242,213,13);fill-rule:nonzero;"/>
            </g>
            <g transform="matrix(39.5833,0,0,39.5833,1166.09,1508.1)">
                <path d="M0.299,-0.62C0.292,-0.612 0.284,-0.606 0.274,-0.601C0.265,-0.597 0.256,-0.594 0.246,-0.593C0.236,-0.591 0.226,-0.593 0.217,-0.597C0.208,-0.601 0.2,-0.607 0.194,-0.615C0.18,-0.632 0.173,-0.648 0.173,-0.665C0.173,-0.681 0.176,-0.694 0.181,-0.702C0.186,-0.71 0.193,-0.717 0.201,-0.722C0.217,-0.732 0.232,-0.737 0.245,-0.737C0.259,-0.737 0.27,-0.736 0.278,-0.734C0.285,-0.732 0.292,-0.729 0.299,-0.725C0.315,-0.714 0.323,-0.701 0.323,-0.685C0.323,-0.67 0.321,-0.657 0.316,-0.647C0.312,-0.636 0.306,-0.628 0.299,-0.62ZM0.199,-0.091C0.207,-0.091 0.211,-0.086 0.211,-0.075C0.211,-0.06 0.205,-0.045 0.191,-0.029C0.172,-0.007 0.146,0.005 0.113,0.005C0.075,0.005 0.049,-0.01 0.035,-0.041C0.03,-0.052 0.027,-0.065 0.027,-0.08C0.027,-0.095 0.03,-0.112 0.035,-0.131C0.041,-0.15 0.047,-0.17 0.055,-0.19C0.063,-0.211 0.072,-0.232 0.082,-0.253L0.107,-0.314C0.126,-0.36 0.136,-0.391 0.136,-0.405C0.136,-0.42 0.134,-0.43 0.131,-0.434C0.128,-0.439 0.125,-0.443 0.121,-0.445L0.111,-0.452C0.108,-0.454 0.106,-0.458 0.106,-0.464C0.106,-0.47 0.109,-0.475 0.113,-0.48C0.117,-0.486 0.123,-0.49 0.13,-0.494C0.145,-0.502 0.162,-0.505 0.182,-0.505C0.229,-0.505 0.253,-0.493 0.253,-0.468C0.253,-0.438 0.246,-0.405 0.23,-0.367C0.215,-0.33 0.202,-0.299 0.191,-0.276L0.162,-0.209C0.141,-0.16 0.13,-0.124 0.13,-0.102C0.13,-0.088 0.137,-0.081 0.151,-0.081C0.165,-0.081 0.176,-0.082 0.183,-0.086C0.19,-0.09 0.195,-0.091 0.199,-0.091Z" style="fill:rgb(242,213,13);fill-rule:nonzero;"/>
            </g>
            <g transform="matrix(39.5833,0,0,39.5833,1175.64,1508.1)">
                <path d="M0.037,-0.047C0.032,-0.058 0.03,-0.071 0.03,-0.085C0.03,-0.1 0.032,-0.116 0.037,-0.134C0.041,-0.152 0.047,-0.17 0.054,-0.188C0.061,-0.207 0.069,-0.226 0.078,-0.245L0.103,-0.302C0.135,-0.376 0.147,-0.42 0.139,-0.434C0.135,-0.44 0.127,-0.446 0.116,-0.452C0.113,-0.454 0.111,-0.458 0.111,-0.464C0.111,-0.47 0.113,-0.475 0.118,-0.48C0.123,-0.486 0.129,-0.49 0.137,-0.494C0.152,-0.502 0.168,-0.505 0.184,-0.505C0.2,-0.505 0.212,-0.504 0.22,-0.5C0.229,-0.497 0.236,-0.493 0.241,-0.487C0.252,-0.477 0.257,-0.464 0.257,-0.448C0.257,-0.433 0.254,-0.416 0.248,-0.396C0.242,-0.377 0.235,-0.357 0.226,-0.336C0.217,-0.315 0.208,-0.293 0.197,-0.271L0.168,-0.207C0.148,-0.16 0.138,-0.129 0.138,-0.113C0.138,-0.083 0.148,-0.068 0.169,-0.068C0.224,-0.068 0.275,-0.101 0.322,-0.165C0.35,-0.202 0.37,-0.243 0.382,-0.287C0.387,-0.308 0.39,-0.327 0.39,-0.344C0.39,-0.361 0.39,-0.375 0.388,-0.387C0.387,-0.398 0.385,-0.408 0.383,-0.417C0.379,-0.433 0.371,-0.446 0.361,-0.458C0.354,-0.466 0.358,-0.476 0.371,-0.487C0.385,-0.499 0.405,-0.505 0.432,-0.505C0.448,-0.505 0.462,-0.498 0.475,-0.482C0.49,-0.464 0.498,-0.438 0.498,-0.404C0.498,-0.37 0.493,-0.337 0.483,-0.304C0.473,-0.271 0.459,-0.24 0.441,-0.21C0.424,-0.18 0.403,-0.152 0.379,-0.125C0.355,-0.099 0.329,-0.077 0.302,-0.058C0.243,-0.016 0.183,0.005 0.124,0.005C0.081,0.005 0.052,-0.013 0.037,-0.047Z" style="fill:rgb(242,213,13);fill-rule:nonzero;"/>
            </g>
            <g transform="matrix(39.5833,0,0,39.5833,1194.07,1508.1)">
                <path d="M0.04,-0.171C0.041,-0.199 0.046,-0.226 0.054,-0.252C0.062,-0.278 0.073,-0.303 0.087,-0.327C0.101,-0.352 0.117,-0.375 0.135,-0.396C0.153,-0.418 0.173,-0.437 0.195,-0.453C0.241,-0.488 0.288,-0.505 0.336,-0.505C0.392,-0.505 0.429,-0.482 0.447,-0.437C0.454,-0.421 0.457,-0.402 0.457,-0.381C0.456,-0.36 0.452,-0.34 0.444,-0.322C0.437,-0.304 0.426,-0.288 0.412,-0.273C0.398,-0.258 0.382,-0.245 0.363,-0.233C0.344,-0.221 0.323,-0.211 0.3,-0.203C0.254,-0.187 0.205,-0.178 0.152,-0.178C0.151,-0.173 0.15,-0.166 0.149,-0.157C0.149,-0.148 0.15,-0.138 0.152,-0.127C0.155,-0.115 0.159,-0.105 0.164,-0.097C0.176,-0.077 0.193,-0.067 0.215,-0.067C0.253,-0.067 0.289,-0.078 0.325,-0.101C0.338,-0.108 0.348,-0.116 0.356,-0.124C0.364,-0.132 0.371,-0.136 0.377,-0.136C0.383,-0.136 0.388,-0.132 0.392,-0.125C0.397,-0.118 0.399,-0.11 0.399,-0.102C0.399,-0.084 0.394,-0.069 0.384,-0.057C0.343,-0.016 0.282,0.005 0.201,0.005C0.153,0.005 0.115,-0.009 0.086,-0.038C0.053,-0.071 0.038,-0.115 0.04,-0.171ZM0.325,-0.44C0.291,-0.44 0.258,-0.417 0.227,-0.37C0.2,-0.33 0.178,-0.282 0.162,-0.227C0.216,-0.232 0.264,-0.254 0.304,-0.291C0.34,-0.326 0.359,-0.36 0.359,-0.392C0.359,-0.424 0.348,-0.44 0.325,-0.44Z" style="fill:rgb(242,213,13);fill-rule:nonzero;"/>
            </g>
        </g>
        <g transform="matrix(0.906788,0,0,0.906788,214.701,337.224)">
            <g transform="matrix(125,0,0,125,1103.46,1575.6)">
                <path d="M0.123,-0.19L0.119,-0.152C0.119,-0.113 0.132,-0.086 0.158,-0.072C0.167,-0.067 0.178,-0.064 0.191,-0.064C0.204,-0.064 0.215,-0.067 0.225,-0.071C0.235,-0.075 0.243,-0.081 0.25,-0.088C0.264,-0.103 0.271,-0.12 0.271,-0.139C0.271,-0.158 0.267,-0.176 0.259,-0.191C0.251,-0.207 0.241,-0.223 0.229,-0.238L0.19,-0.286C0.159,-0.324 0.138,-0.358 0.127,-0.389C0.116,-0.42 0.111,-0.449 0.111,-0.475C0.111,-0.501 0.114,-0.526 0.12,-0.549C0.127,-0.572 0.136,-0.594 0.147,-0.615C0.158,-0.636 0.172,-0.656 0.188,-0.673C0.204,-0.691 0.222,-0.706 0.241,-0.719C0.282,-0.746 0.322,-0.76 0.362,-0.76C0.402,-0.76 0.434,-0.754 0.456,-0.743C0.479,-0.732 0.497,-0.718 0.51,-0.701C0.536,-0.669 0.548,-0.631 0.548,-0.585C0.548,-0.543 0.536,-0.504 0.513,-0.467C0.491,-0.433 0.466,-0.411 0.439,-0.402C0.434,-0.399 0.426,-0.398 0.415,-0.398C0.405,-0.398 0.396,-0.399 0.389,-0.403C0.382,-0.406 0.376,-0.41 0.371,-0.415C0.36,-0.426 0.354,-0.439 0.354,-0.452C0.354,-0.461 0.357,-0.467 0.362,-0.47C0.387,-0.484 0.409,-0.503 0.427,-0.528C0.447,-0.556 0.457,-0.584 0.458,-0.611C0.459,-0.639 0.452,-0.659 0.438,-0.672C0.424,-0.685 0.405,-0.692 0.382,-0.692C0.358,-0.692 0.337,-0.687 0.318,-0.676C0.299,-0.665 0.283,-0.651 0.27,-0.633C0.24,-0.595 0.226,-0.549 0.226,-0.497C0.226,-0.462 0.238,-0.425 0.262,-0.387C0.272,-0.37 0.283,-0.354 0.295,-0.338C0.307,-0.322 0.318,-0.305 0.328,-0.288C0.352,-0.249 0.364,-0.213 0.364,-0.182C0.364,-0.151 0.358,-0.125 0.347,-0.103C0.336,-0.082 0.321,-0.063 0.302,-0.047C0.262,-0.012 0.217,0.005 0.166,0.005C0.117,0.005 0.08,-0.009 0.054,-0.038C0.033,-0.061 0.023,-0.086 0.023,-0.113C0.023,-0.143 0.031,-0.167 0.048,-0.188C0.061,-0.203 0.073,-0.212 0.084,-0.215C0.11,-0.222 0.123,-0.213 0.123,-0.19Z" style="fill:rgb(242,149,13);fill-rule:nonzero;"/>
            </g>
            <g transform="matrix(125,0,0,125,1157.1,1575.6)">
                <path d="M0.387,-0.413C0.377,-0.413 0.363,-0.403 0.344,-0.384C0.326,-0.365 0.31,-0.347 0.296,-0.331L0.254,-0.281L0.174,-0.179C0.155,-0.143 0.141,-0.114 0.13,-0.09L0.104,-0.033C0.097,-0.019 0.091,-0.009 0.086,-0.004C0.081,0.002 0.074,0.005 0.065,0.005C0.057,0.005 0.048,0.003 0.04,0C0.032,-0.003 0.025,-0.007 0.02,-0.012C0.007,-0.022 0.001,-0.034 0.001,-0.046C0.001,-0.051 0.005,-0.06 0.012,-0.075L0.03,-0.114C0.036,-0.126 0.043,-0.141 0.051,-0.159L0.078,-0.226C0.117,-0.322 0.136,-0.384 0.136,-0.412C0.136,-0.427 0.131,-0.438 0.121,-0.445L0.111,-0.452C0.108,-0.454 0.106,-0.458 0.106,-0.464C0.106,-0.47 0.109,-0.475 0.113,-0.48C0.117,-0.486 0.123,-0.49 0.13,-0.494C0.145,-0.502 0.16,-0.505 0.175,-0.505C0.189,-0.505 0.201,-0.504 0.209,-0.5C0.217,-0.497 0.224,-0.493 0.229,-0.487C0.242,-0.476 0.248,-0.464 0.248,-0.452C0.248,-0.439 0.246,-0.427 0.243,-0.414C0.24,-0.402 0.236,-0.389 0.231,-0.376C0.226,-0.363 0.222,-0.351 0.216,-0.338C0.211,-0.326 0.206,-0.315 0.202,-0.306L0.192,-0.285C0.19,-0.28 0.189,-0.278 0.19,-0.28C0.227,-0.33 0.25,-0.363 0.262,-0.377L0.296,-0.418C0.321,-0.447 0.341,-0.467 0.355,-0.476C0.384,-0.496 0.407,-0.505 0.423,-0.505C0.44,-0.505 0.454,-0.503 0.465,-0.499C0.477,-0.495 0.487,-0.489 0.495,-0.481C0.513,-0.464 0.522,-0.443 0.522,-0.417C0.522,-0.392 0.516,-0.365 0.504,-0.337C0.493,-0.309 0.483,-0.286 0.474,-0.269C0.465,-0.251 0.457,-0.234 0.449,-0.216C0.425,-0.161 0.413,-0.122 0.413,-0.097C0.413,-0.086 0.421,-0.081 0.439,-0.081C0.453,-0.081 0.465,-0.083 0.476,-0.089C0.488,-0.095 0.495,-0.098 0.498,-0.098C0.505,-0.098 0.508,-0.095 0.508,-0.088C0.508,-0.059 0.493,-0.035 0.464,-0.015C0.444,-0.002 0.426,0.005 0.409,0.005C0.393,0.005 0.379,0.003 0.368,0C0.357,-0.004 0.347,-0.01 0.339,-0.018C0.32,-0.035 0.31,-0.059 0.31,-0.09C0.31,-0.128 0.322,-0.175 0.346,-0.231C0.363,-0.27 0.375,-0.297 0.382,-0.311L0.399,-0.346C0.409,-0.367 0.414,-0.383 0.414,-0.395C0.414,-0.407 0.405,-0.413 0.387,-0.413Z" style="fill:rgb(242,149,13);fill-rule:nonzero;"/>
            </g>
            <g transform="matrix(125,0,0,125,1221.6,1575.6)">
                <path d="M0.412,-0.13C0.412,-0.1 0.423,-0.085 0.444,-0.085C0.458,-0.085 0.471,-0.087 0.48,-0.092C0.49,-0.096 0.496,-0.099 0.5,-0.099C0.506,-0.099 0.51,-0.095 0.51,-0.088C0.51,-0.06 0.495,-0.036 0.466,-0.016C0.435,0.006 0.403,0.011 0.371,0C0.35,-0.007 0.334,-0.024 0.324,-0.048C0.319,-0.061 0.317,-0.073 0.317,-0.083C0.317,-0.1 0.319,-0.118 0.322,-0.137C0.292,-0.075 0.254,-0.032 0.209,-0.009C0.191,0 0.172,0.005 0.152,0.005C0.132,0.005 0.114,0.001 0.099,-0.008C0.085,-0.016 0.072,-0.027 0.062,-0.042C0.04,-0.073 0.031,-0.111 0.033,-0.157C0.035,-0.215 0.052,-0.272 0.084,-0.328C0.114,-0.38 0.151,-0.422 0.196,-0.455C0.242,-0.489 0.284,-0.505 0.323,-0.505C0.363,-0.505 0.394,-0.487 0.418,-0.451C0.441,-0.487 0.461,-0.505 0.478,-0.505C0.497,-0.505 0.511,-0.502 0.52,-0.495C0.538,-0.482 0.544,-0.471 0.539,-0.461C0.457,-0.294 0.415,-0.189 0.413,-0.148C0.412,-0.143 0.412,-0.136 0.412,-0.13ZM0.141,-0.128C0.141,-0.089 0.154,-0.069 0.179,-0.069C0.198,-0.069 0.222,-0.086 0.25,-0.118C0.291,-0.166 0.327,-0.23 0.358,-0.312C0.368,-0.337 0.377,-0.362 0.384,-0.388C0.382,-0.41 0.373,-0.426 0.356,-0.437C0.35,-0.44 0.341,-0.442 0.33,-0.442C0.318,-0.442 0.305,-0.438 0.289,-0.429C0.274,-0.421 0.259,-0.409 0.244,-0.395C0.23,-0.38 0.216,-0.363 0.204,-0.343C0.191,-0.323 0.18,-0.301 0.171,-0.277C0.151,-0.227 0.141,-0.177 0.141,-0.128Z" style="fill:rgb(242,149,13);fill-rule:nonzero;"/>
            </g>
            <g transform="matrix(125,0,0,125,1283.66,1575.6)">
                <path d="M0.033,-0.168C0.034,-0.197 0.038,-0.225 0.047,-0.253C0.055,-0.281 0.066,-0.308 0.08,-0.333C0.094,-0.358 0.11,-0.381 0.129,-0.402C0.148,-0.424 0.169,-0.442 0.191,-0.457C0.238,-0.489 0.288,-0.505 0.339,-0.505C0.393,-0.505 0.429,-0.484 0.448,-0.441C0.455,-0.426 0.458,-0.409 0.458,-0.389C0.457,-0.37 0.454,-0.352 0.448,-0.336C0.442,-0.32 0.435,-0.306 0.426,-0.293C0.406,-0.264 0.386,-0.25 0.366,-0.25C0.344,-0.25 0.327,-0.256 0.316,-0.269C0.307,-0.279 0.304,-0.292 0.308,-0.306C0.309,-0.31 0.312,-0.314 0.316,-0.318C0.321,-0.321 0.327,-0.326 0.335,-0.334C0.356,-0.356 0.367,-0.382 0.368,-0.412C0.369,-0.432 0.356,-0.442 0.331,-0.442C0.304,-0.442 0.275,-0.427 0.245,-0.396C0.201,-0.351 0.171,-0.294 0.153,-0.225C0.137,-0.164 0.14,-0.12 0.162,-0.092C0.174,-0.076 0.192,-0.067 0.213,-0.067C0.25,-0.067 0.286,-0.08 0.32,-0.106C0.33,-0.115 0.339,-0.123 0.345,-0.131C0.352,-0.14 0.358,-0.144 0.363,-0.144C0.369,-0.144 0.373,-0.141 0.377,-0.136C0.381,-0.131 0.383,-0.124 0.383,-0.115C0.383,-0.096 0.374,-0.077 0.357,-0.059C0.313,-0.016 0.259,0.005 0.197,0.005C0.144,0.005 0.103,-0.01 0.074,-0.041C0.046,-0.07 0.032,-0.113 0.033,-0.168Z" style="fill:rgb(242,149,13);fill-rule:nonzero;"/>
            </g>
            <g transform="matrix(125,0,0,125,1336.21,1575.6)">
                <path d="M0.358,0.004C0.285,0.004 0.226,-0.066 0.182,-0.206C0.164,-0.174 0.15,-0.145 0.139,-0.119L0.109,-0.053C0.101,-0.035 0.093,-0.02 0.086,-0.01C0.078,0 0.07,0.005 0.061,0.005C0.052,0.005 0.044,0.003 0.036,0C0.029,-0.003 0.022,-0.007 0.017,-0.012C0.005,-0.022 0,-0.034 0,-0.046C0,-0.051 0.003,-0.06 0.01,-0.075L0.029,-0.114C0.09,-0.24 0.145,-0.398 0.195,-0.591C0.213,-0.662 0.226,-0.726 0.234,-0.782C0.238,-0.81 0.251,-0.823 0.274,-0.823C0.288,-0.823 0.299,-0.82 0.309,-0.813C0.326,-0.799 0.335,-0.783 0.334,-0.767C0.333,-0.751 0.331,-0.733 0.327,-0.713C0.324,-0.693 0.319,-0.671 0.313,-0.647C0.306,-0.623 0.299,-0.598 0.292,-0.572C0.27,-0.504 0.255,-0.455 0.244,-0.426L0.198,-0.3C0.192,-0.285 0.188,-0.274 0.185,-0.267C0.26,-0.297 0.317,-0.331 0.354,-0.369C0.377,-0.391 0.389,-0.413 0.389,-0.433C0.389,-0.443 0.385,-0.45 0.379,-0.455C0.372,-0.459 0.367,-0.463 0.365,-0.465C0.363,-0.468 0.362,-0.472 0.365,-0.478C0.367,-0.485 0.373,-0.491 0.383,-0.497C0.393,-0.502 0.405,-0.505 0.419,-0.505C0.434,-0.505 0.446,-0.504 0.455,-0.501C0.465,-0.499 0.473,-0.495 0.48,-0.489C0.496,-0.478 0.504,-0.462 0.504,-0.441C0.504,-0.42 0.5,-0.401 0.491,-0.384C0.482,-0.366 0.469,-0.349 0.45,-0.333C0.413,-0.302 0.354,-0.271 0.273,-0.242C0.284,-0.199 0.302,-0.161 0.329,-0.128C0.355,-0.097 0.378,-0.081 0.4,-0.081C0.411,-0.081 0.421,-0.083 0.429,-0.087L0.447,-0.096C0.45,-0.098 0.454,-0.099 0.457,-0.099C0.465,-0.099 0.469,-0.094 0.469,-0.084C0.469,-0.076 0.468,-0.068 0.465,-0.062C0.462,-0.055 0.458,-0.049 0.452,-0.042C0.447,-0.034 0.44,-0.027 0.432,-0.021C0.41,-0.004 0.386,0.004 0.358,0.004Z" style="fill:rgb(242,149,13);fill-rule:nonzero;"/>
            </g>
        </g>
        <g transform="matrix(0.906788,0,0,0.906788,418.021,487.652)">
            <g transform="matrix(29.1667,0,0,29.1667,1121.87,1432.41)">
                <path d="M0.921,-0.351C0.921,-0.338 0.914,-0.323 0.9,-0.306C0.886,-0.29 0.868,-0.272 0.847,-0.254C0.825,-0.236 0.801,-0.219 0.775,-0.201C0.749,-0.183 0.722,-0.166 0.697,-0.15C0.671,-0.135 0.647,-0.121 0.625,-0.109C0.604,-0.097 0.587,-0.088 0.574,-0.081C0.561,-0.074 0.547,-0.067 0.532,-0.062C0.518,-0.056 0.504,-0.049 0.491,-0.041C0.485,-0.038 0.479,-0.034 0.474,-0.03C0.468,-0.026 0.463,-0.021 0.458,-0.018C0.447,-0.01 0.437,-0.005 0.427,-0.003C0.417,-0.001 0.408,0.001 0.401,0.004C0.393,0.007 0.388,0.011 0.384,0.018C0.38,0.025 0.378,0.036 0.378,0.053C0.361,0.053 0.344,0.051 0.328,0.048C0.312,0.045 0.296,0.044 0.279,0.044C0.269,0.044 0.259,0.045 0.25,0.048L0.193,0.067C0.183,0.07 0.174,0.071 0.163,0.071L0.119,0.071C0.115,0.065 0.11,0.06 0.104,0.056C0.099,0.052 0.094,0.048 0.088,0.045C0.083,0.042 0.077,0.04 0.072,0.037C0.066,0.035 0.061,0.031 0.056,0.026C0.049,0.019 0.041,0.011 0.033,0.001C0.025,-0.009 0.018,-0.018 0.011,-0.027C-0.002,-0.043 -0.013,-0.061 -0.022,-0.08C-0.031,-0.1 -0.038,-0.12 -0.043,-0.141C-0.049,-0.162 -0.053,-0.184 -0.056,-0.206C-0.058,-0.227 -0.06,-0.248 -0.06,-0.268C-0.06,-0.272 -0.058,-0.281 -0.054,-0.293C-0.051,-0.306 -0.046,-0.32 -0.042,-0.334C-0.037,-0.348 -0.032,-0.362 -0.026,-0.375C-0.021,-0.388 -0.017,-0.397 -0.015,-0.402C-0.015,-0.404 -0.012,-0.409 -0.007,-0.417C-0.002,-0.426 0.004,-0.435 0.011,-0.446C0.018,-0.457 0.026,-0.47 0.034,-0.483C0.043,-0.496 0.051,-0.509 0.059,-0.521C0.066,-0.532 0.073,-0.543 0.079,-0.552C0.085,-0.562 0.089,-0.568 0.092,-0.572C0.096,-0.578 0.103,-0.588 0.113,-0.602C0.123,-0.615 0.135,-0.631 0.148,-0.647C0.162,-0.664 0.177,-0.682 0.192,-0.699C0.208,-0.717 0.223,-0.733 0.238,-0.747C0.252,-0.761 0.266,-0.771 0.278,-0.779C0.29,-0.786 0.299,-0.789 0.306,-0.786C0.333,-0.823 0.368,-0.849 0.409,-0.867C0.451,-0.884 0.494,-0.893 0.538,-0.893C0.553,-0.893 0.568,-0.893 0.583,-0.895C0.599,-0.897 0.614,-0.893 0.628,-0.884C0.634,-0.872 0.641,-0.856 0.649,-0.837C0.656,-0.817 0.663,-0.797 0.669,-0.775C0.676,-0.753 0.681,-0.732 0.685,-0.711C0.688,-0.691 0.69,-0.674 0.69,-0.661C0.69,-0.646 0.687,-0.631 0.68,-0.617C0.673,-0.604 0.665,-0.59 0.655,-0.577C0.646,-0.564 0.636,-0.551 0.625,-0.539C0.615,-0.526 0.607,-0.513 0.601,-0.5C0.595,-0.49 0.589,-0.475 0.582,-0.456C0.574,-0.437 0.565,-0.418 0.556,-0.4C0.546,-0.381 0.535,-0.365 0.523,-0.352C0.512,-0.338 0.499,-0.331 0.485,-0.331C0.478,-0.331 0.47,-0.335 0.462,-0.344C0.453,-0.352 0.449,-0.36 0.449,-0.367C0.449,-0.394 0.453,-0.419 0.462,-0.443C0.47,-0.467 0.481,-0.491 0.493,-0.513C0.506,-0.536 0.519,-0.558 0.534,-0.58C0.549,-0.601 0.563,-0.623 0.575,-0.646C0.588,-0.668 0.598,-0.69 0.606,-0.713C0.615,-0.736 0.619,-0.761 0.619,-0.786C0.619,-0.795 0.618,-0.805 0.617,-0.816C0.615,-0.827 0.61,-0.835 0.601,-0.84L0.556,-0.84C0.539,-0.84 0.521,-0.839 0.502,-0.836C0.483,-0.834 0.467,-0.826 0.454,-0.813C0.449,-0.808 0.444,-0.803 0.439,-0.796C0.434,-0.79 0.429,-0.785 0.424,-0.779L0.41,-0.764C0.407,-0.76 0.404,-0.757 0.401,-0.755C0.398,-0.752 0.396,-0.751 0.395,-0.75L0.362,-0.735C0.357,-0.733 0.352,-0.73 0.347,-0.727C0.333,-0.717 0.321,-0.707 0.31,-0.694C0.299,-0.682 0.289,-0.669 0.279,-0.656C0.269,-0.643 0.258,-0.631 0.247,-0.619C0.236,-0.607 0.223,-0.598 0.208,-0.59C0.191,-0.562 0.172,-0.532 0.152,-0.501C0.131,-0.471 0.112,-0.439 0.094,-0.406C0.076,-0.374 0.06,-0.34 0.048,-0.307C0.035,-0.273 0.029,-0.239 0.029,-0.206C0.029,-0.192 0.031,-0.177 0.033,-0.159C0.036,-0.141 0.04,-0.123 0.047,-0.106C0.053,-0.09 0.062,-0.075 0.072,-0.062C0.082,-0.049 0.095,-0.04 0.11,-0.036C0.115,-0.035 0.12,-0.034 0.125,-0.035C0.129,-0.035 0.134,-0.035 0.139,-0.035C0.143,-0.035 0.148,-0.035 0.152,-0.034C0.156,-0.034 0.16,-0.031 0.163,-0.027L0.217,-0.027C0.229,-0.027 0.241,-0.028 0.251,-0.03C0.261,-0.032 0.271,-0.035 0.281,-0.039C0.291,-0.042 0.301,-0.046 0.311,-0.05C0.32,-0.055 0.331,-0.059 0.342,-0.063C0.348,-0.065 0.354,-0.067 0.359,-0.069C0.365,-0.071 0.37,-0.073 0.376,-0.075C0.39,-0.079 0.404,-0.082 0.418,-0.085C0.432,-0.088 0.445,-0.092 0.458,-0.099C0.474,-0.106 0.488,-0.115 0.502,-0.125C0.516,-0.135 0.531,-0.144 0.547,-0.152C0.551,-0.154 0.557,-0.156 0.564,-0.156L0.605,-0.159C0.611,-0.16 0.616,-0.161 0.618,-0.164C0.624,-0.17 0.63,-0.176 0.635,-0.182C0.641,-0.188 0.647,-0.194 0.653,-0.2C0.664,-0.202 0.675,-0.206 0.685,-0.213C0.694,-0.219 0.705,-0.224 0.716,-0.226C0.719,-0.227 0.722,-0.228 0.725,-0.23C0.728,-0.232 0.731,-0.233 0.734,-0.235C0.743,-0.241 0.752,-0.246 0.761,-0.252C0.769,-0.258 0.778,-0.263 0.786,-0.269C0.828,-0.297 0.87,-0.324 0.912,-0.351L0.921,-0.351Z" style="fill:white;fill-rule:nonzero;"/>
            </g>
            <g transform="matrix(29.1667,0,0,29.1667,1144.94,1432.41)">
                <path d="M0.657,-0.307C0.66,-0.297 0.659,-0.289 0.654,-0.282C0.65,-0.275 0.644,-0.269 0.636,-0.264C0.629,-0.258 0.621,-0.254 0.612,-0.25C0.603,-0.245 0.596,-0.241 0.59,-0.235C0.561,-0.229 0.534,-0.224 0.51,-0.221C0.486,-0.218 0.46,-0.215 0.432,-0.21C0.423,-0.209 0.415,-0.209 0.408,-0.21C0.4,-0.212 0.393,-0.213 0.385,-0.212C0.38,-0.212 0.376,-0.212 0.372,-0.212C0.368,-0.213 0.364,-0.213 0.36,-0.212C0.345,-0.211 0.336,-0.206 0.331,-0.197C0.326,-0.188 0.323,-0.178 0.32,-0.167C0.317,-0.155 0.313,-0.144 0.309,-0.134C0.305,-0.124 0.296,-0.117 0.282,-0.113C0.281,-0.11 0.281,-0.107 0.284,-0.104C0.286,-0.102 0.288,-0.1 0.289,-0.098C0.278,-0.094 0.271,-0.089 0.267,-0.08C0.264,-0.072 0.26,-0.063 0.258,-0.055C0.255,-0.046 0.251,-0.039 0.247,-0.033C0.242,-0.027 0.232,-0.025 0.219,-0.027C0.199,-0.006 0.175,0.012 0.147,0.025C0.12,0.038 0.092,0.047 0.063,0.051C0.057,0.048 0.052,0.045 0.047,0.041C0.042,0.037 0.038,0.034 0.033,0.03C0.028,0.027 0.023,0.025 0.017,0.023C0.012,0.021 0.005,0.021 -0.002,0.022C-0.003,0.009 -0.005,-0.004 -0.01,-0.016C-0.015,-0.027 -0.021,-0.038 -0.029,-0.049C-0.031,-0.061 -0.029,-0.071 -0.025,-0.082C-0.021,-0.092 -0.016,-0.102 -0.012,-0.111C-0.007,-0.121 -0.003,-0.131 0,-0.141C0.002,-0.151 0.002,-0.163 -0.002,-0.176C0.005,-0.18 0.009,-0.184 0.011,-0.189C0.014,-0.195 0.015,-0.2 0.016,-0.206C0.017,-0.211 0.019,-0.216 0.021,-0.221C0.022,-0.226 0.027,-0.23 0.034,-0.233C0.029,-0.249 0.03,-0.261 0.037,-0.268C0.043,-0.276 0.052,-0.282 0.062,-0.288C0.071,-0.294 0.08,-0.3 0.089,-0.308C0.097,-0.315 0.101,-0.326 0.099,-0.34C0.103,-0.344 0.107,-0.347 0.112,-0.35C0.118,-0.352 0.123,-0.355 0.127,-0.357C0.132,-0.359 0.137,-0.362 0.142,-0.364C0.146,-0.367 0.15,-0.37 0.154,-0.375C0.15,-0.378 0.148,-0.382 0.148,-0.385C0.148,-0.388 0.149,-0.391 0.15,-0.395C0.152,-0.399 0.153,-0.402 0.155,-0.406C0.156,-0.41 0.156,-0.414 0.154,-0.418C0.172,-0.415 0.187,-0.418 0.201,-0.425C0.214,-0.433 0.227,-0.44 0.239,-0.448C0.251,-0.456 0.263,-0.462 0.275,-0.465C0.288,-0.468 0.302,-0.464 0.318,-0.453C0.32,-0.449 0.322,-0.442 0.325,-0.433C0.328,-0.424 0.331,-0.415 0.333,-0.406C0.336,-0.397 0.339,-0.388 0.342,-0.38C0.344,-0.371 0.346,-0.365 0.347,-0.361L0.347,-0.283C0.366,-0.272 0.384,-0.265 0.403,-0.263C0.422,-0.261 0.441,-0.265 0.46,-0.276C0.467,-0.27 0.474,-0.268 0.48,-0.271C0.487,-0.274 0.493,-0.277 0.5,-0.281C0.506,-0.285 0.512,-0.287 0.519,-0.288C0.525,-0.288 0.532,-0.283 0.538,-0.271C0.547,-0.28 0.557,-0.285 0.566,-0.288C0.576,-0.29 0.586,-0.291 0.597,-0.292C0.607,-0.292 0.617,-0.293 0.627,-0.294C0.638,-0.295 0.647,-0.299 0.657,-0.307ZM0.282,-0.29C0.282,-0.3 0.284,-0.31 0.287,-0.321C0.29,-0.332 0.293,-0.343 0.295,-0.354C0.297,-0.365 0.297,-0.375 0.294,-0.385C0.292,-0.395 0.286,-0.403 0.275,-0.411C0.268,-0.407 0.262,-0.402 0.258,-0.395C0.253,-0.388 0.249,-0.381 0.244,-0.375C0.24,-0.368 0.234,-0.362 0.228,-0.357C0.222,-0.353 0.214,-0.352 0.204,-0.354C0.201,-0.346 0.201,-0.339 0.204,-0.334C0.207,-0.33 0.211,-0.325 0.216,-0.321C0.22,-0.317 0.225,-0.312 0.229,-0.308C0.233,-0.303 0.235,-0.297 0.233,-0.29C0.236,-0.288 0.24,-0.286 0.244,-0.285C0.249,-0.283 0.253,-0.282 0.258,-0.282C0.263,-0.281 0.268,-0.282 0.272,-0.283C0.277,-0.285 0.28,-0.287 0.282,-0.29ZM0.275,-0.212C0.262,-0.212 0.251,-0.215 0.242,-0.221C0.232,-0.227 0.223,-0.234 0.213,-0.242C0.204,-0.25 0.194,-0.257 0.184,-0.264C0.174,-0.271 0.162,-0.275 0.147,-0.276C0.142,-0.269 0.135,-0.261 0.127,-0.254C0.119,-0.248 0.112,-0.24 0.106,-0.232C0.101,-0.225 0.097,-0.216 0.094,-0.207C0.092,-0.198 0.093,-0.188 0.099,-0.176C0.084,-0.169 0.074,-0.158 0.068,-0.145C0.063,-0.132 0.06,-0.117 0.058,-0.102C0.056,-0.086 0.055,-0.07 0.054,-0.055C0.052,-0.039 0.048,-0.025 0.041,-0.013L0.063,-0.027C0.065,-0.026 0.067,-0.024 0.069,-0.021C0.07,-0.019 0.071,-0.016 0.069,-0.013C0.075,-0.018 0.08,-0.022 0.087,-0.025C0.093,-0.028 0.1,-0.03 0.107,-0.032C0.114,-0.033 0.121,-0.035 0.127,-0.036C0.134,-0.037 0.141,-0.039 0.147,-0.042C0.164,-0.033 0.175,-0.031 0.183,-0.036C0.19,-0.041 0.196,-0.049 0.2,-0.06C0.205,-0.07 0.21,-0.081 0.215,-0.092C0.22,-0.104 0.229,-0.111 0.24,-0.113L0.233,-0.12C0.244,-0.134 0.254,-0.148 0.263,-0.163C0.272,-0.177 0.276,-0.194 0.275,-0.212Z" style="fill:white;fill-rule:nonzero;"/>
            </g>
            <g transform="matrix(29.1667,0,0,29.1667,1160.66,1432.41)">
                <path d="M0.079,-0.07C0.078,-0.061 0.077,-0.049 0.075,-0.036C0.073,-0.023 0.07,-0.011 0.064,0C0.059,0.011 0.052,0.021 0.044,0.028C0.035,0.036 0.024,0.039 0.011,0.038C0.003,0.037 -0.003,0.035 -0.008,0.031C-0.013,0.027 -0.017,0.022 -0.021,0.017C-0.024,0.011 -0.026,0.004 -0.028,-0.002C-0.029,-0.009 -0.03,-0.016 -0.03,-0.022L-0.03,-0.043C-0.028,-0.052 -0.023,-0.062 -0.014,-0.074C-0.005,-0.085 0.004,-0.093 0.013,-0.099C0.023,-0.104 0.031,-0.104 0.039,-0.099C0.047,-0.093 0.051,-0.079 0.052,-0.056C0.056,-0.06 0.061,-0.064 0.064,-0.068C0.068,-0.072 0.073,-0.073 0.079,-0.07Z" style="fill:white;fill-rule:nonzero;"/>
            </g>
        </g>
    </g>
</svg>
